<svg id="Layer_1" data-name="Layer 1" xmlns="http://www.w3.org/2000/svg" viewBox="0 0 49.23 48.01"><defs></defs><title>github_icon</title><path class="cls-1" d="M25.19.82a24.62,24.62,0,0,0-7.78,48c1.23.23,1.68-.53,1.68-1.18s0-2.14,0-4.19c-6.85,1.49-8.29-3.3-8.29-3.3C9.65,37.28,8,36.52,8,36.52,5.8,35,8.2,35,8.2,35A5.19,5.19,0,0,1,12,37.56c2.2,3.76,5.76,2.67,7.17,2a5.27,5.27,0,0,1,1.56-3.29c-5.47-.62-11.21-2.73-11.21-12.16A9.54,9.54,0,0,1,12,17.54,8.85,8.85,0,0,1,12.26,11s2.07-.66,6.77,2.52a23.31,23.31,0,0,1,12.33,0c4.7-3.18,6.76-2.52,6.76-2.52a8.79,8.79,0,0,1,.24,6.51,9.49,9.49,0,0,1,2.53,6.61c0,9.45-5.75,11.54-11.23,12.14a5.9,5.9,0,0,1,1.67,4.56c0,3.29,0,5.95,0,6.76,0,.65.44,1.42,1.69,1.18a24.62,24.62,0,0,0-7.8-48Z" transform="translate(-0.58 -0.82)"/></svg>
