<svg id="Layer_1" data-name="Layer 1" xmlns="http://www.w3.org/2000/svg" viewBox="0 0 50 50"><defs><style>.cls-1{fill:#fff;fill-rule:evenodd;}</style></defs><title>slack_icon</title><path class="cls-1" d="M19.78,1.13a4.58,4.58,0,0,0-4.57,4.59h0a4.58,4.58,0,0,0,4.57,4.59h4.58V5.72a4.59,4.59,0,0,0-4.57-4.59h0m0,12.23H7.58A4.59,4.59,0,0,0,3,18H3a4.59,4.59,0,0,0,4.58,4.59h12.2A4.59,4.59,0,0,0,24.36,18h0a4.59,4.59,0,0,0-4.58-4.59h0"/><path class="cls-1" d="M48.78,18a4.59,4.59,0,0,0-4.58-4.59h0A4.59,4.59,0,0,0,39.62,18h0v4.59H44.2A4.59,4.59,0,0,0,48.78,18h0M36.57,18V5.72A4.59,4.59,0,0,0,32,1.13h0a4.59,4.59,0,0,0-4.58,4.59h0V18A4.59,4.59,0,0,0,32,22.54h0A4.59,4.59,0,0,0,36.57,18h0"/><path class="cls-1" d="M32,47a4.59,4.59,0,0,0,4.58-4.59h0A4.58,4.58,0,0,0,32,37.83H27.41v4.58A4.59,4.59,0,0,0,32,47h0m0-12.23H44.2a4.59,4.59,0,0,0,4.58-4.59h0A4.58,4.58,0,0,0,44.2,25.6H32a4.58,4.58,0,0,0-4.58,4.58h0A4.59,4.59,0,0,0,32,34.77h0"/><path class="cls-1" d="M3,30.18a4.59,4.59,0,0,0,4.58,4.59h0a4.59,4.59,0,0,0,4.58-4.59h0V25.6H7.58A4.58,4.58,0,0,0,3,30.18H3m12.21,0V42.41A4.57,4.57,0,0,0,19.78,47h0a4.59,4.59,0,0,0,4.58-4.59h0V30.18a4.57,4.57,0,0,0-4.57-4.58h0a4.56,4.56,0,0,0-4.57,4.58h0"/></svg>