<?xml version="1.0" encoding="UTF-8"?>
<svg width="63px" height="63px" viewBox="0 0 63 63" version="1.1" xmlns="http://www.w3.org/2000/svg" xmlns:xlink="http://www.w3.org/1999/xlink">
    <!-- Generator: Sketch 54.1 (76490) - https://sketchapp.com -->
    <title>Artboard</title>
    <desc>Created with Sketch.</desc>
    <g id="Artboard" stroke="none" stroke-width="1" fill="none" fill-rule="evenodd">
        <g id="Group" transform="translate(3.000000, 3.000000)" fill="#FFFFFF" fill-rule="nonzero">
            <path d="M0,3.85 L0,14 L14.5,14 L14.5,0 L3.9875,0 C1.8125,0 0,1.75 0,3.85 Z" id="Shape"></path>
            <path d="M0,54.25 C0,55.3 1.0875,56 2.175,56 L12.325,56 C13.4125,56 14.5,55.3 14.5,54.25 L14.5,28 L0,28 L0,54.25 Z" id="Shape"></path>
            <path d="M55.825,0 L29,0 L29,14 L58,14 L58,2.1 C58,1.05 56.9125,0 55.825,0 Z" id="Shape"></path>
            <path d="M29,42 L55.825,42 C56.9125,42 58,40.95 58,39.9 L58,28 L29,28 L29,42 Z" id="Shape"></path>
        </g>
    </g>
</svg>