<?xml version="1.0" encoding="UTF-8"?>
<svg width="191px" height="32px" viewBox="0 0 191 32" version="1.1" xmlns="http://www.w3.org/2000/svg" xmlns:xlink="http://www.w3.org/1999/xlink">
    <!-- Generator: Sketch 64 (93537) - https://sketch.com -->
    <title>Design System palvelutunnus</title>
    <desc>Created with Sketch.</desc>
    <g id="Design-System-palvelutunnus" stroke="none" stroke-width="1" fill="none" fill-rule="evenodd">
        <g id="Logo">
            <path d="M31,32 L1,32 C0.45,32 0,31.55 0,31 L0,1 C0,0.45 0.45,0 1,0 L31,0 C31.55,0 32,0.45 32,1 L32,31 C32,31.55 31.55,32 31,32 Z" id="Fill-1" fill="#00347A"></path>
            <path d="M8.0008,12.0004 L8.0008,9.1434 C8.0008,8.5144 8.5148,8.0004 9.1438,8.0004 L12.0008,8.0004 L12.0008,12.0004" id="Fill-3" fill="#FFFFFF"></path>
            <path d="M8,15.9996 L12,15.9996 L12,23.4666 C12,23.7596 11.743,23.9996 11.429,23.9996 L8.571,23.9996 C8.257,23.9996 8,23.7596 8,23.4666" id="Fill-5" fill="#FFFFFF"></path>
            <path d="M16,8.0004 L23.429,8.0004 C23.743,8.0004 24,8.2574 24,8.5714 L24,12.0004 L16,12.0004" id="Fill-7" fill="#FFFFFF"></path>
            <path d="M23.4286,19.9996 L15.9996,19.9996 L15.9996,15.9996 L23.9996,15.9996 L23.9996,19.4286 C23.9996,19.7436 23.7446,19.9996 23.4286,19.9996" id="Fill-9" fill="#FFFFFF"></path>
        </g>
        <path d="M49.696,24 C55.384,24 58.504,20.616 58.504,15.696 C58.504,10.848 55.552,7.44 49.792,7.44 L44.992,7.44 L44.992,24 L49.696,24 Z M49.792,21.96 L47.248,21.96 L47.248,9.48 L49.864,9.48 C53.656,9.48 56.176,11.568 56.176,15.72 C56.176,19.944 53.776,21.96 49.792,21.96 Z M66.208,24.24 C68.104,24.24 69.568,23.664 70.792,22.704 L70.48,20.784 C69.232,21.768 68.032,22.416 66.376,22.416 C64.384,22.416 63.136,21.168 63.04,18.504 L70.816,18.504 L70.816,18.048 C70.816,14.88 69.28,12.312 65.944,12.312 C63.064,12.312 60.904,14.568 60.904,18.24 C60.904,22.44 63.232,24.24 66.208,24.24 Z M68.656,16.896 L63.136,16.896 C63.472,14.952 64.6,13.992 65.92,13.992 C67.576,13.992 68.392,15.048 68.656,16.896 Z M77.008,24.24 C79.96,24.24 81.52,22.896 81.52,20.808 C81.52,18.624 80.248,17.808 77.416,17.088 C75.616,16.632 75.04,16.2 75.04,15.432 C75.04,14.616 75.712,14.112 77.008,14.112 C78.208,14.112 79.48,14.52 80.488,15.096 L80.824,13.08 C79.744,12.6 78.472,12.312 77.056,12.312 C74.56,12.312 73.024,13.656 73.024,15.48 C73.024,17.52 74.104,18.336 76.792,19.008 C78.856,19.512 79.504,19.896 79.504,20.952 C79.504,21.912 78.64,22.464 77.176,22.464 C75.616,22.464 74.224,21.888 73.144,21.144 L72.832,23.16 C73.816,23.712 75.496,24.24 77.008,24.24 Z M85.384,10.248 C86.128,10.248 86.728,9.648 86.728,8.904 C86.728,8.16 86.128,7.536 85.384,7.536 C84.64,7.536 84.016,8.16 84.016,8.904 C84.016,9.648 84.64,10.248 85.384,10.248 Z M86.44,24 L86.44,12.552 L84.304,12.552 L84.304,24 L86.44,24 Z M94.048,28.368 C97.024,28.368 99.64,27.24 99.64,24.84 C99.64,23.064 98.128,22.296 95.704,21.864 L94.888,21.72 C92.872,21.36 92.464,21.264 92.464,20.856 C92.464,20.64 92.704,20.376 93.04,20.16 C93.328,20.208 93.616,20.232 93.904,20.232 C96.232,20.232 98.296,18.744 98.296,16.296 C98.296,15.648 98.152,15.048 97.84,14.52 L100.024,14.304 L99.712,12.384 L96.808,13.272 C96.016,12.648 95.008,12.312 93.856,12.312 C91.528,12.312 89.464,13.824 89.464,16.296 C89.464,17.856 90.328,19.056 91.6,19.704 C90.832,20.16 90.4,20.712 90.4,21.264 C90.4,21.696 90.616,22.104 91.12,22.464 C89.512,23.328 88.696,24.24 88.696,25.416 C88.696,27.432 91.072,28.368 94.048,28.368 Z M93.856,18.72 C92.44,18.72 91.528,17.688 91.528,16.368 C91.528,14.976 92.416,13.872 93.856,13.872 C95.272,13.872 96.232,14.904 96.232,16.272 C96.232,17.64 95.32,18.72 93.856,18.72 Z M94.144,26.832 C91.912,26.832 90.736,26.16 90.736,25.248 C90.736,24.456 91.336,23.784 92.68,23.112 C93.136,23.208 93.472,23.28 94.096,23.4 L95.464,23.64 C97.096,23.928 97.624,24.408 97.624,25.104 C97.624,26.064 96.376,26.832 94.144,26.832 Z M104.2,24 L104.2,16.08 C105.232,14.976 106.384,14.232 107.512,14.232 C108.76,14.232 109.264,15.024 109.264,16.2 L109.264,24 L111.4,24 L111.4,15.672 C111.4,13.608 110.248,12.312 108.088,12.312 C106.456,12.312 105.112,13.224 104.032,14.208 L103.768,12.552 L102.064,12.552 L102.064,24 L104.2,24 Z M124.216,24.192 C127.312,24.192 129.448,22.392 129.448,19.536 C129.448,17.04 128.344,15.936 125.128,14.472 C122.608,13.32 121.984,12.72 121.984,11.448 C121.984,10.224 122.824,9.216 124.72,9.216 C126.04,9.216 127.288,9.744 128.2,10.44 L128.56,8.184 C127.6,7.632 126.4,7.248 124.792,7.248 C121.792,7.248 119.752,8.952 119.752,11.616 C119.752,13.992 120.928,15.024 124.048,16.44 C126.544,17.568 127.216,18.192 127.216,19.704 C127.216,21.312 125.992,22.224 124.264,22.224 C122.608,22.224 121.048,21.552 119.92,20.808 L119.584,23.112 C120.808,23.76 122.416,24.192 124.216,24.192 Z M132.88,28.368 C134.56,28.368 135.808,27.744 136.744,25.2 L141.424,12.552 L139.192,12.552 L136.192,21.456 L133.12,12.384 L130.96,12.72 L135.136,24.048 L134.848,24.816 C134.392,26.04 133.744,26.496 132.784,26.496 C132.448,26.496 132.016,26.424 131.656,26.328 L131.968,28.272 C132.184,28.32 132.424,28.368 132.88,28.368 Z M146.92,24.24 C149.872,24.24 151.432,22.896 151.432,20.808 C151.432,18.624 150.16,17.808 147.328,17.088 C145.528,16.632 144.952,16.2 144.952,15.432 C144.952,14.616 145.624,14.112 146.92,14.112 C148.12,14.112 149.392,14.52 150.4,15.096 L150.736,13.08 C149.656,12.6 148.384,12.312 146.968,12.312 C144.472,12.312 142.936,13.656 142.936,15.48 C142.936,17.52 144.016,18.336 146.704,19.008 C148.768,19.512 149.416,19.896 149.416,20.952 C149.416,21.912 148.552,22.464 147.088,22.464 C145.528,22.464 144.136,21.888 143.056,21.144 L142.744,23.16 C143.728,23.712 145.408,24.24 146.92,24.24 Z M157.936,24.192 C158.68,24.192 159.184,24.12 159.544,24.048 L159.256,22.224 C158.992,22.272 158.656,22.296 158.272,22.296 C157.072,22.296 156.688,21.72 156.688,20.784 L156.688,14.352 L159.448,14.352 L159.16,12.552 L156.688,12.552 L156.688,8.424 L154.6,8.736 L154.6,12.552 L152.872,12.552 L152.872,14.352 L154.6,14.352 L154.6,21.168 C154.6,23.472 155.92,24.192 157.936,24.192 Z M166.696,24.24 C168.592,24.24 170.056,23.664 171.28,22.704 L170.968,20.784 C169.72,21.768 168.52,22.416 166.864,22.416 C164.872,22.416 163.624,21.168 163.528,18.504 L171.304,18.504 L171.304,18.048 C171.304,14.88 169.768,12.312 166.432,12.312 C163.552,12.312 161.392,14.568 161.392,18.24 C161.392,22.44 163.72,24.24 166.696,24.24 Z M169.144,16.896 L163.624,16.896 C163.96,14.952 165.088,13.992 166.408,13.992 C168.064,13.992 168.88,15.048 169.144,16.896 Z M176.152,24 L176.152,16.08 C177.184,14.976 178.264,14.232 179.392,14.232 C180.64,14.232 181.072,15.024 181.072,16.2 L181.072,24 L183.208,24 L183.208,16.08 C184.24,14.976 185.32,14.232 186.448,14.232 C187.696,14.232 188.128,15.024 188.128,16.2 L188.128,24 L190.264,24 L190.264,15.672 C190.264,13.608 189.208,12.312 187.024,12.312 C185.416,12.312 184.024,13.224 182.992,14.208 C182.56,13.032 181.648,12.312 179.968,12.312 C178.36,12.312 177.064,13.224 175.984,14.208 L175.72,12.552 L174.016,12.552 L174.016,24 L176.152,24 Z" id="DesignSystem" fill="#00347A" fill-rule="nonzero"></path>
    </g>
</svg>