<svg width="195" height="116" viewBox="0 0 195 116" fill="none" xmlns="http://www.w3.org/2000/svg">
<g opacity="0.8">
<path d="M15.225 28.475L12.9 35.975H27.675L25.35 28.475C24.45 25.725 23.6 23 22.8 20.3C22 17.55 21.2 14.75 20.4 11.9H20.1C19.35 14.75 18.575 17.55 17.775 20.3C16.975 23 16.125 25.725 15.225 28.475ZM0.225 56L16.875 6.8H23.925L40.575 56H33.9L29.25 41H11.325L6.6 56H0.225ZM57.1037 56.9C54.0537 56.9 51.5037 56 49.4537 54.2C47.4537 52.35 46.4537 49.8 46.4537 46.55C46.4537 42.55 48.2287 39.5 51.7787 37.4C55.3787 35.25 61.0537 33.75 68.8037 32.9C68.8037 31.35 68.5787 29.875 68.1287 28.475C67.7287 27.075 66.9787 25.95 65.8787 25.1C64.8287 24.2 63.3037 23.75 61.3037 23.75C59.2037 23.75 57.2287 24.15 55.3787 24.95C53.5287 25.75 51.8787 26.65 50.4287 27.65L48.0287 23.375C49.7287 22.275 51.8037 21.225 54.2537 20.225C56.7537 19.175 59.4537 18.65 62.3537 18.65C66.8037 18.65 70.0287 20.025 72.0287 22.775C74.0287 25.475 75.0287 29.1 75.0287 33.65V56H69.9287L69.4037 51.65H69.1787C67.4787 53.05 65.6037 54.275 63.5537 55.325C61.5537 56.375 59.4037 56.9 57.1037 56.9ZM58.9037 51.95C60.6537 51.95 62.3037 51.525 63.8537 50.675C65.4037 49.825 67.0537 48.625 68.8037 47.075V36.95C62.7537 37.7 58.5037 38.825 56.0537 40.325C53.6537 41.825 52.4537 43.75 52.4537 46.1C52.4537 48.15 53.0787 49.65 54.3287 50.6C55.5787 51.5 57.1037 51.95 58.9037 51.95Z" fill="white"/>
<path fill-rule="evenodd" clip-rule="evenodd" d="M154.5 82.75C155.745 82.75 156.75 83.758 156.75 85C156.75 86.242 155.745 87.25 154.5 87.25H151.483L146.664 98.5H189.337L184.518 87.25H181.5C180.256 87.25 179.25 86.242 179.25 85C179.25 83.758 180.256 82.75 181.5 82.75H186C186.9 82.75 187.715 83.2855 188.068 84.1135L194.818 99.8635C195.117 100.559 195.045 101.358 194.629 101.987C194.211 102.62 193.506 103 192.75 103H143.25C142.494 103 141.79 102.62 141.372 101.987C140.955 101.358 140.883 100.559 141.183 99.8635L147.933 84.1135C148.286 83.2855 149.1 82.75 150 82.75H154.5ZM168 51.25C176.683 51.25 183.75 58.1642 183.75 66.6625C183.75 79.1725 170.023 90.742 169.44 91.2302C169.022 91.5767 168.513 91.75 168 91.75C167.487 91.75 166.979 91.5767 166.56 91.2302C165.978 90.742 152.25 79.1725 152.25 66.6625C152.25 58.1642 159.318 51.25 168 51.25ZM168 55.75C161.797 55.75 156.75 60.6438 156.75 66.6625C156.75 74.9178 164.675 83.308 168 86.4648C171.326 83.308 179.25 74.9178 179.25 66.6625C179.25 60.6438 174.204 55.75 168 55.75ZM168 62.5C170.482 62.5 172.5 64.5182 172.5 67C172.5 69.4817 170.482 71.5 168 71.5C165.519 71.5 163.5 69.4817 163.5 67C163.5 64.5182 165.519 62.5 168 62.5Z" fill="white"/>
<line x1="141.62" y1="1.49304" x2="71.7844" y2="114.608" stroke="white" stroke-width="4"/>
</g>
</svg>
