<?xml version="1.0" encoding="UTF-8"?>
<svg width="512px" height="512px" viewBox="0 0 512 512" version="1.1" xmlns="http://www.w3.org/2000/svg" xmlns:xlink="http://www.w3.org/1999/xlink">
    <g>
        <g fill-rule="nonzero">
            <path d="M493.381818,0 L18.6181818,0 C8.37818182,0 0,8.37818182 0,18.6181818 L0,493.381818 C0,503.621818 8.37818182,512 18.6181818,512 L493.381818,512 C503.621818,512 512,503.621818 512,493.381818 L512,18.6181818 C512,8.37818182 503.621818,0 493.381818,0 Z" fill="#003479" />
            <g transform="translate(130.327273, 121.018182)" fill="#FFFFFF">
                <path d="M0,65.1636364 L0,18.6181818 C0,8.37818182 8.37818182,0 18.6181818,0 L65.1636364,0 L65.1636364,65.1636364" />
                <path d="M0,130.327273 L65.1636364,130.327273 L65.1636364,260.654545 C65.1636364,265.309091 61.44,269.963636 55.8545455,269.963636 L9.30909091,269.963636 C3.72363636,269.963636 0,265.309091 0,260.654545" />
                <path d="M130.327273,0 L251.345455,0 C256,0 260.654545,3.72363636 260.654545,9.30909091 L260.654545,65.1636364 L130.327273,65.1636364" />
                <path d="M251.345455,195.490909 L130.327273,195.490909 L130.327273,130.327273 L260.654545,130.327273 L260.654545,186.181818 C260.654545,191.767273 256.930909,195.490909 251.345455,195.490909 Z" />
            </g>
        </g>
    </g>
</svg>